<svg width="138" height="47" viewBox="0 0 138 47" fill="none" xmlns="http://www.w3.org/2000/svg">
<g clip-path="url(#clip0_4358_53121)">
<path d="M126.655 0.748196H10.9649C10.5432 0.748196 10.1265 0.748196 9.70594 0.750496C9.35387 0.752796 9.0046 0.759478 8.64915 0.765101C7.87694 0.774188 7.10655 0.842124 6.34466 0.968318C5.58385 1.09726 4.84687 1.34035 4.15865 1.68937C3.47127 2.04134 2.8432 2.49869 2.29721 3.04483C1.74835 3.58943 1.29083 4.21891 0.942252 4.90908C0.59271 5.59787 0.350337 6.33598 0.223503 7.0979C0.0954626 7.85886 0.0265631 8.62859 0.0174225 9.4002C0.0067505 9.75279 0.0056235 10.1066 0 10.4592V37.0406C0.0056235 37.3977 0.0067505 37.7436 0.0174225 38.1008C0.0265659 38.8723 0.0954654 39.642 0.223503 40.403C0.349986 41.1653 0.592374 41.9039 0.942252 42.5929C1.29067 43.2808 1.74825 43.9078 2.29721 44.4493C2.84113 44.9979 3.46961 45.4556 4.15865 45.8048C4.84687 46.1548 5.58377 46.3993 6.34466 46.5303C7.10668 46.6555 7.87699 46.7234 8.64915 46.7336C9.0046 46.7414 9.35387 46.7459 9.70594 46.7459C10.1265 46.7482 10.5432 46.7482 10.9649 46.7482H126.655C127.068 46.7482 127.488 46.7482 127.902 46.7459C128.252 46.7459 128.611 46.7414 128.962 46.7336C129.732 46.724 130.501 46.656 131.262 46.5303C132.025 46.3984 132.765 46.1539 133.456 45.8048C134.145 45.4554 134.773 44.9977 135.316 44.4493C135.864 43.9057 136.322 43.2792 136.675 42.5929C137.022 41.9034 137.262 41.1649 137.387 40.403C137.515 39.6419 137.586 38.8724 137.6 38.1008C137.605 37.7436 137.605 37.3977 137.605 37.0406C137.614 36.6228 137.614 36.2073 137.614 35.7827V11.7147C137.614 11.2936 137.614 10.8758 137.605 10.4592C137.605 10.1066 137.605 9.75279 137.6 9.40015C137.586 8.62848 137.515 7.85892 137.387 7.09785C137.262 6.33637 137.022 5.59832 136.675 4.90903C135.965 3.52567 134.839 2.39963 133.456 1.68926C132.765 1.3411 132.025 1.09807 131.262 0.968214C130.501 0.841465 129.733 0.773505 128.962 0.76494C128.611 0.759328 128.252 0.752589 127.902 0.750347C127.488 0.748047 127.068 0.748047 126.655 0.748047V0.748196Z" fill="black"/>
<path d="M9.71541 45.7414C9.36502 45.7414 9.02311 45.7369 8.67547 45.7291C7.95532 45.7197 7.23685 45.657 6.52596 45.5415C5.86309 45.4274 5.22095 45.215 4.62071 44.9115C4.02598 44.6104 3.48353 44.2157 3.01416 43.7424C2.53799 43.2746 2.14156 42.7321 1.84057 42.1364C1.53627 41.5368 1.32568 40.894 1.21612 40.2306C1.09782 39.5177 1.03381 38.7969 1.02465 38.0744C1.01736 37.8318 1.00781 37.0243 1.00781 37.0243V10.4586C1.00781 10.4586 1.01798 9.66353 1.02471 9.42993C1.03348 8.70851 1.09711 7.98881 1.21507 7.27705C1.32482 6.61179 1.53558 5.96722 1.84004 5.36563C2.13992 4.77029 2.53416 4.2274 3.00746 3.75799C3.48022 3.28412 4.0244 2.88735 4.62015 2.58215C5.219 2.27956 5.85993 2.0687 6.52146 1.95662C7.23469 1.83997 7.95565 1.7769 8.6783 1.76795L9.71597 1.75391H127.9L128.95 1.76851C129.666 1.77702 130.38 1.83952 131.087 1.95549C131.755 2.06898 132.403 2.28131 133.009 2.58552C134.202 3.20059 135.173 4.17369 135.786 5.36844C136.085 5.96587 136.293 6.60519 136.401 7.26469C136.521 7.9823 136.587 8.70766 136.601 9.43499C136.605 9.76067 136.605 10.1105 136.605 10.4586C136.614 10.8899 136.614 11.3004 136.614 11.7142V35.7822C136.614 36.2 136.614 36.6076 136.605 37.0187C136.605 37.3926 136.605 37.7352 136.6 38.0878C136.587 38.8022 136.521 39.5146 136.403 40.2193C136.296 40.8876 136.087 41.5353 135.782 42.1398C135.479 42.7291 135.085 43.2669 134.615 43.7334C134.145 44.2092 133.601 44.6063 133.005 44.9093C132.401 45.2152 131.755 45.4283 131.087 45.5415C130.376 45.6576 129.658 45.7203 128.937 45.7291C128.601 45.7369 128.248 45.7414 127.905 45.7414L126.659 45.7437L9.71541 45.7414Z" fill="white"/>
<path d="M28.7427 23.6199C28.7555 22.6217 29.0207 21.643 29.5134 20.7749C30.0061 19.9067 30.7105 19.1773 31.5608 18.6545C31.0206 17.883 30.3079 17.248 29.4794 16.8001C28.6509 16.3522 27.7293 16.1036 26.7879 16.0742C24.7797 15.8634 22.8329 17.2758 21.8095 17.2758C20.7664 17.2758 19.1909 16.0951 17.4942 16.13C16.3968 16.1655 15.3273 16.4846 14.3898 17.0563C13.4524 17.628 12.6791 18.4328 12.1451 19.3922C9.83236 23.3965 11.5575 29.2815 13.773 32.5183C14.8814 34.1033 16.1769 35.8737 17.872 35.8109C19.5308 35.7421 20.1503 34.7532 22.1525 34.7532C24.1362 34.7532 24.7174 35.8109 26.4469 35.771C28.2269 35.7421 29.3483 34.179 30.4179 32.5791C31.2143 31.4497 31.8272 30.2015 32.2337 28.8808C31.1997 28.4434 30.3172 27.7113 29.6964 26.7758C29.0756 25.8402 28.7439 24.7427 28.7427 23.6199Z" fill="black"/>
<path d="M25.4762 13.9459C26.4467 12.7808 26.9249 11.2834 26.8091 9.77148C25.3264 9.92721 23.9568 10.6358 22.9732 11.7562C22.4923 12.3035 22.124 12.9402 21.8893 13.63C21.6546 14.3197 21.5581 15.049 21.6055 15.776C22.3471 15.7836 23.0807 15.6229 23.7512 15.3059C24.4217 14.9889 25.0115 14.5239 25.4762 13.9459Z" fill="black"/>
<path d="M48.6422 31.9579H43.1988L41.8915 35.8178H39.5859L44.7418 21.5371H47.1373L52.2932 35.8178H49.9483L48.6422 31.9579ZM43.7626 30.1767H48.0774L45.9503 23.9124H45.8907L43.7626 30.1767Z" fill="black"/>
<path d="M63.4326 30.6122C63.4326 33.8477 61.7009 35.9265 59.0875 35.9265C58.4255 35.9611 57.7672 35.8086 57.1878 35.4865C56.6084 35.1643 56.1315 34.6855 55.8116 34.1049H55.7622V39.2619H53.625V25.4058H55.6937V27.1375H55.733C56.0676 26.5597 56.5525 26.0834 57.1363 25.7592C57.7201 25.4351 58.3808 25.2753 59.0482 25.2968C61.6908 25.2969 63.4326 27.3857 63.4326 30.6122ZM61.2359 30.6122C61.2359 28.5043 60.1466 27.1184 58.4844 27.1184C56.8515 27.1184 55.7532 28.5335 55.7532 30.6122C55.7532 32.7101 56.8515 34.115 58.4844 34.115C60.1466 34.115 61.2359 32.7393 61.2359 30.6122H61.2359Z" fill="black"/>
<path d="M74.8863 30.6122C74.8863 33.8477 73.154 35.9265 70.5407 35.9265C69.8787 35.9611 69.2203 35.8086 68.6409 35.4865C68.0616 35.1643 67.5846 34.6855 67.2647 34.1049H67.2153V39.2619H65.0781V25.4058H67.1468V27.1375H67.1861C67.5207 26.5597 68.0057 26.0834 68.5894 25.7592C69.1732 25.4351 69.8339 25.2753 70.5013 25.2968C73.1439 25.2969 74.8863 27.3857 74.8863 30.6122ZM72.6891 30.6122C72.6891 28.5043 71.5997 27.1184 69.9376 27.1184C68.3047 27.1184 67.2063 28.5335 67.2063 30.6122C67.2063 32.7101 68.3047 34.115 69.9376 34.115C71.5997 34.115 72.6891 32.7393 72.6891 30.6122Z" fill="black"/>
<path d="M82.4612 31.8387C82.6195 33.2548 83.9953 34.1847 85.8752 34.1847C87.6766 34.1847 88.9726 33.2548 88.9726 31.9779C88.9726 30.8694 88.191 30.2057 86.3402 29.7509L84.4894 29.305C81.8671 28.6716 80.6497 27.4453 80.6497 25.4552C80.6497 22.9913 82.797 21.2988 85.8449 21.2988C88.8637 21.2988 90.9323 22.9913 91.002 25.4552H88.8446C88.7154 24.0301 87.5373 23.1698 85.8157 23.1698C84.0941 23.1698 82.916 24.0402 82.916 25.307C82.916 26.3166 83.6685 26.9107 85.5091 27.3655L87.0825 27.7518C90.0125 28.4447 91.2288 29.6217 91.2288 31.7106C91.2288 34.3823 89.1017 36.0556 85.7168 36.0556C82.5498 36.0556 80.4116 34.4216 80.2734 31.8386L82.4612 31.8387Z" fill="black"/>
<path d="M95.8408 22.9414V25.4054H97.8207V27.0978H95.8408V32.8377C95.8408 33.7294 96.2373 34.1449 97.1076 34.1449C97.3427 34.1408 97.5773 34.1243 97.8106 34.0955V35.7778C97.4193 35.8509 97.0216 35.884 96.6236 35.8766C94.5156 35.8766 93.6935 35.0849 93.6935 33.0656V27.0978H92.1797V25.4054H93.6935V22.9414H95.8408Z" fill="black"/>
<path d="M98.9688 30.6118C98.9688 27.3359 100.898 25.2773 103.907 25.2773C106.926 25.2773 108.846 27.3358 108.846 30.6118C108.846 33.8967 106.936 35.9463 103.907 35.9463C100.879 35.9463 98.9688 33.8967 98.9688 30.6118ZM106.668 30.6118C106.668 28.3646 105.639 27.0383 103.907 27.0383C102.175 27.0383 101.145 28.3747 101.145 30.6118C101.145 32.868 102.175 34.1842 103.907 34.1842C105.639 34.1842 106.668 32.868 106.668 30.6118H106.668Z" fill="black"/>
<path d="M110.609 25.4057H112.648V27.1778H112.697C112.835 26.6244 113.159 26.1352 113.615 25.7927C114.071 25.4501 114.632 25.275 115.202 25.2967C115.448 25.2959 115.693 25.3226 115.934 25.3765V27.3755C115.623 27.2805 115.299 27.2369 114.974 27.2463C114.663 27.2338 114.354 27.2885 114.066 27.4068C113.779 27.5251 113.521 27.7042 113.309 27.9318C113.097 28.1594 112.938 28.43 112.841 28.7252C112.743 29.0204 112.711 29.3331 112.747 29.6418V35.8174H110.609L110.609 25.4057Z" fill="black"/>
<path d="M125.783 32.7591C125.495 34.6492 123.654 35.9463 121.299 35.9463C118.271 35.9463 116.391 33.9169 116.391 30.6612C116.391 27.3954 118.281 25.2773 121.21 25.2773C124.09 25.2773 125.902 27.2561 125.902 30.413V31.1453H118.548V31.2744C118.514 31.6576 118.562 32.0436 118.689 32.4068C118.815 32.77 119.018 33.1021 119.283 33.3811C119.548 33.66 119.869 33.8794 120.225 34.0246C120.581 34.1699 120.964 34.2377 121.349 34.2235C121.854 34.2708 122.361 34.1539 122.794 33.89C123.227 33.6262 123.564 33.2295 123.753 32.7591L125.783 32.7591ZM118.558 29.6516H123.763C123.783 29.3071 123.73 28.9623 123.61 28.6389C123.49 28.3155 123.304 28.0205 123.064 27.7724C122.824 27.5242 122.536 27.3283 122.217 27.197C121.897 27.0656 121.555 27.0017 121.21 27.0091C120.862 27.007 120.517 27.0739 120.195 27.2058C119.873 27.3378 119.58 27.5322 119.333 27.7779C119.087 28.0236 118.891 28.3156 118.758 28.6372C118.625 28.9588 118.557 29.3036 118.558 29.6516V29.6516Z" fill="black"/>
<path d="M43.502 10.789C43.9501 10.7569 44.3997 10.8246 44.8184 10.9872C45.2371 11.1499 45.6145 11.4034 45.9234 11.7296C46.2323 12.0558 46.4649 12.4464 46.6045 12.8734C46.7441 13.3003 46.7873 13.753 46.7308 14.1986C46.7308 16.3908 45.5459 17.6509 43.502 17.6509H41.0234V10.789H43.502ZM42.0892 16.6805H43.383C43.7031 16.6996 44.0235 16.6471 44.3208 16.5268C44.6182 16.4065 44.8849 16.2214 45.1017 15.985C45.3184 15.7486 45.4798 15.4669 45.5739 15.1603C45.6681 14.8536 45.6926 14.5299 45.6459 14.2126C45.6892 13.8965 45.6622 13.5748 45.5666 13.2704C45.471 12.9661 45.3093 12.6866 45.093 12.4521C44.8767 12.2176 44.6113 12.0338 44.3156 11.9139C44.02 11.794 43.7015 11.7411 43.383 11.7587H42.0892V16.6805Z" fill="black"/>
<path d="M47.9334 15.0599C47.9009 14.7196 47.9398 14.3762 48.0477 14.0518C48.1556 13.7275 48.3302 13.4292 48.5601 13.1762C48.79 12.9233 49.0703 12.7211 49.3829 12.5828C49.6955 12.4445 50.0336 12.373 50.3755 12.373C50.7174 12.373 51.0554 12.4445 51.3681 12.5828C51.6807 12.7211 51.961 12.9233 52.1909 13.1762C52.4208 13.4292 52.5954 13.7275 52.7033 14.0518C52.8112 14.3762 52.8501 14.7196 52.8176 15.0599C52.8507 15.4005 52.8123 15.7444 52.7046 16.0693C52.597 16.3942 52.4226 16.693 52.1926 16.9464C51.9626 17.1999 51.6821 17.4025 51.3692 17.5411C51.0562 17.6797 50.7178 17.7513 50.3755 17.7513C50.0332 17.7513 49.6947 17.6797 49.3818 17.5411C49.0689 17.4025 48.7884 17.1999 48.5584 16.9464C48.3284 16.693 48.154 16.3942 48.0464 16.0693C47.9387 15.7444 47.9003 15.4005 47.9334 15.0599ZM51.7664 15.0599C51.7664 13.9374 51.2621 13.281 50.3772 13.281C49.4888 13.281 48.9891 13.9374 48.9891 15.0599C48.9891 16.1914 49.4889 16.8427 50.3772 16.8427C51.2621 16.8427 51.7664 16.1869 51.7664 15.0599H51.7664Z" fill="black"/>
<path d="M59.3092 17.651H58.249L57.1788 13.8372H57.0979L56.0321 17.651H54.9821L53.5547 12.4727H54.5913L55.5189 16.4241H55.5953L56.6599 12.4727H57.6403L58.705 16.4241H58.7858L59.709 12.4727H60.731L59.3092 17.651Z" fill="black"/>
<path d="M61.9297 12.4722H62.9135V13.2949H62.9898C63.1194 12.9994 63.3379 12.7517 63.6149 12.5864C63.8919 12.421 64.2136 12.3461 64.5352 12.3723C64.7871 12.3533 65.0401 12.3913 65.2754 12.4834C65.5107 12.5756 65.7222 12.7194 65.8944 12.9044C66.0665 13.0894 66.1948 13.3107 66.2698 13.552C66.3448 13.7933 66.3645 14.0484 66.3275 14.2983V17.6506H65.3056V14.5549C65.3056 13.7228 64.944 13.3089 64.1881 13.3089C64.0171 13.3009 63.8463 13.3301 63.6875 13.3943C63.5288 13.4585 63.3858 13.5562 63.2683 13.6809C63.1509 13.8055 63.0618 13.9541 63.0071 14.1164C62.9525 14.2787 62.9335 14.4509 62.9517 14.6212V17.6506H61.9297L61.9297 12.4722Z" fill="black"/>
<path d="M67.9609 10.4512H68.9829V17.651H67.9609V10.4512Z" fill="black"/>
<path d="M70.4021 15.06C70.3696 14.7196 70.4086 14.3763 70.5165 14.0519C70.6245 13.7275 70.799 13.4292 71.029 13.1763C71.2589 12.9233 71.5392 12.7211 71.8519 12.5828C72.1645 12.4445 72.5026 12.373 72.8445 12.373C73.1864 12.373 73.5245 12.4445 73.8371 12.5828C74.1498 12.7211 74.4301 12.9233 74.66 13.1763C74.89 13.4292 75.0645 13.7275 75.1725 14.0519C75.2804 14.3763 75.3194 14.7196 75.2868 15.06C75.32 15.4006 75.2815 15.7445 75.1738 16.0694C75.0661 16.3943 74.8917 16.6931 74.6617 16.9465C74.4317 17.2 74.1512 17.4026 73.8382 17.5412C73.5253 17.6798 73.1868 17.7514 72.8445 17.7514C72.5022 17.7514 72.1637 17.6798 71.8508 17.5412C71.5378 17.4026 71.2573 17.2 71.0273 16.9465C70.7973 16.6931 70.6229 16.3943 70.5152 16.0694C70.4075 15.7445 70.369 15.4006 70.4021 15.06ZM74.2351 15.06C74.2351 13.9375 73.7308 13.2811 72.8459 13.2811C71.9576 13.2811 71.4579 13.9375 71.4579 15.06C71.4579 16.1915 71.9576 16.8428 72.8459 16.8428C73.7309 16.8428 74.2351 16.187 74.2351 15.06H74.2351Z" fill="black"/>
<path d="M76.3594 16.1869C76.3594 15.2548 77.0534 14.7174 78.2854 14.641L79.6881 14.5602V14.1132C79.6881 13.5663 79.3265 13.2574 78.6279 13.2574C78.0574 13.2574 77.6621 13.4669 77.5487 13.833H76.5593C76.6637 12.9436 77.5004 12.373 78.6751 12.373C79.9733 12.373 80.7056 13.0193 80.7056 14.1132V17.6514H79.7218V16.9236H79.6409C79.4768 17.1847 79.2463 17.3975 78.9731 17.5403C78.6998 17.6832 78.3935 17.7509 78.0855 17.7367C77.8681 17.7593 77.6484 17.7361 77.4405 17.6686C77.2326 17.6011 77.0412 17.4908 76.8786 17.3448C76.716 17.1987 76.5857 17.0203 76.4963 16.8208C76.4069 16.6214 76.3602 16.4055 76.3594 16.1869ZM79.6881 15.7444V15.3115L78.4235 15.3923C77.7104 15.4401 77.387 15.6827 77.387 16.1392C77.387 16.6052 77.7912 16.8764 78.3472 16.8764C78.5101 16.8929 78.6746 16.8765 78.831 16.8281C78.9874 16.7797 79.1325 16.7003 79.2576 16.5947C79.3827 16.4891 79.4853 16.3594 79.5593 16.2133C79.6332 16.0672 79.677 15.9078 79.6881 15.7444Z" fill="black"/>
<path d="M82.0547 15.0596C82.0547 13.4233 82.8959 12.3868 84.2042 12.3868C84.5278 12.3718 84.849 12.4494 85.1302 12.6102C85.4114 12.7711 85.641 13.0087 85.7922 13.2953H85.8686V10.4512H86.8905V17.651H85.9112V16.8329H85.8304C85.6675 17.1175 85.4299 17.3521 85.1433 17.5114C84.8566 17.6706 84.5319 17.7484 84.2042 17.7364C82.8869 17.7364 82.0547 16.6998 82.0547 15.0596ZM83.1104 15.0596C83.1104 16.158 83.6281 16.8189 84.494 16.8189C85.3553 16.8189 85.8877 16.1484 85.8877 15.0641C85.8877 13.9849 85.3498 13.3049 84.494 13.3049C83.6337 13.3049 83.1104 13.9703 83.1104 15.0596H83.1104Z" fill="black"/>
<path d="M91.1131 15.0599C91.0806 14.7196 91.1195 14.3762 91.2274 14.0518C91.3353 13.7275 91.5098 13.4292 91.7398 13.1762C91.9697 12.9233 92.25 12.7211 92.5626 12.5828C92.8752 12.4445 93.2133 12.373 93.5552 12.373C93.897 12.373 94.2351 12.4445 94.5478 12.5828C94.8604 12.7211 95.1406 12.9233 95.3706 13.1762C95.6005 13.4292 95.775 13.7275 95.8829 14.0518C95.9909 14.3762 96.0298 14.7196 95.9972 15.0599C96.0304 15.4005 95.9919 15.7444 95.8843 16.0693C95.7767 16.3942 95.6023 16.693 95.3723 16.9464C95.1423 17.1999 94.8618 17.4025 94.5489 17.5411C94.2359 17.6797 93.8974 17.7513 93.5552 17.7513C93.2129 17.7513 92.8744 17.6797 92.5615 17.5411C92.2485 17.4025 91.9681 17.1999 91.7381 16.9464C91.5081 16.693 91.3337 16.3942 91.226 16.0693C91.1184 15.7444 91.0799 15.4005 91.1131 15.0599ZM94.9461 15.0599C94.9461 13.9374 94.4418 13.281 93.5569 13.281C92.6685 13.281 92.1688 13.9374 92.1688 15.0599C92.1688 16.1914 92.6686 16.8427 93.5569 16.8427C94.4418 16.8427 94.9461 16.1869 94.9461 15.0599Z" fill="black"/>
<path d="M97.375 12.4722H98.3588V13.2949H98.4352C98.5647 12.9994 98.7832 12.7517 99.0602 12.5864C99.3372 12.421 99.6589 12.3461 99.9805 12.3723C100.232 12.3533 100.485 12.3913 100.721 12.4834C100.956 12.5756 101.168 12.7194 101.34 12.9044C101.512 13.0894 101.64 13.3107 101.715 13.552C101.79 13.7933 101.81 14.0484 101.773 14.2983V17.6506H100.751V14.5549C100.751 13.7228 100.389 13.3089 99.6335 13.3089C99.4624 13.3009 99.2916 13.3301 99.1328 13.3943C98.9741 13.4585 98.8311 13.5562 98.7136 13.6809C98.5962 13.8055 98.5071 13.9541 98.4524 14.1164C98.3978 14.2787 98.3789 14.4509 98.397 14.6212V17.6506H97.375V12.4722Z" fill="black"/>
<path d="M107.548 11.1836V12.4964H108.67V13.3573H107.548V16.02C107.548 16.5624 107.772 16.8 108.281 16.8C108.411 16.7995 108.541 16.7917 108.67 16.7764V17.6276C108.487 17.6605 108.301 17.6779 108.114 17.6799C106.978 17.6799 106.525 17.28 106.525 16.2817V13.3572H105.703V12.4964H106.525V11.1836H107.548Z" fill="black"/>
<path d="M110.062 10.4512H111.075V13.3048H111.156C111.292 13.0066 111.517 12.7575 111.799 12.5915C112.082 12.4255 112.409 12.3507 112.735 12.3772C112.986 12.3636 113.237 12.4054 113.469 12.4998C113.702 12.5941 113.911 12.7386 114.081 12.923C114.251 13.1074 114.379 13.3271 114.455 13.5665C114.53 13.8058 114.552 14.0589 114.519 14.3077V17.651H113.496V14.5598C113.496 13.7327 113.11 13.3138 112.388 13.3138C112.213 13.2994 112.036 13.3236 111.871 13.3846C111.705 13.4456 111.555 13.542 111.431 13.667C111.307 13.7921 111.212 13.9427 111.152 14.1085C111.092 14.2743 111.069 14.4511 111.085 14.6266V17.651H110.063L110.062 10.4512Z" fill="black"/>
<path d="M120.478 16.2533C120.339 16.7265 120.039 17.1359 119.628 17.4098C119.218 17.6837 118.725 17.8046 118.234 17.7514C117.893 17.7604 117.554 17.6951 117.241 17.5599C116.928 17.4247 116.647 17.223 116.42 16.9687C116.192 16.7144 116.023 16.4136 115.923 16.0872C115.823 15.7608 115.796 15.4166 115.842 15.0786C115.797 14.7394 115.825 14.3945 115.924 14.0671C116.024 13.7398 116.192 13.4376 116.419 13.1811C116.645 12.9245 116.924 12.7196 117.237 12.5802C117.549 12.4408 117.888 12.3702 118.23 12.3731C119.671 12.3731 120.54 13.3575 120.54 14.9836V15.3402H116.883V15.3975C116.867 15.5875 116.891 15.7788 116.954 15.9591C117.016 16.1393 117.115 16.3046 117.245 16.4443C117.375 16.584 117.532 16.695 117.708 16.7702C117.883 16.8454 118.072 16.8831 118.263 16.881C118.507 16.9104 118.755 16.8663 118.974 16.7545C119.193 16.6428 119.375 16.4683 119.495 16.2532L120.478 16.2533ZM116.883 14.5844H119.499C119.512 14.4106 119.488 14.236 119.43 14.0719C119.371 13.9078 119.279 13.7577 119.159 13.6314C119.039 13.5051 118.894 13.4052 118.733 13.3383C118.572 13.2714 118.399 13.2389 118.224 13.2429C118.048 13.2407 117.872 13.2739 117.708 13.3405C117.545 13.4072 117.396 13.5059 117.271 13.6309C117.146 13.756 117.047 13.9047 116.981 14.0685C116.914 14.2322 116.881 14.4077 116.883 14.5844H116.883Z" fill="black"/>
</g>
<defs>
<clipPath id="clip0_4358_53121">
<rect width="137.614" height="46" fill="white" transform="translate(0 0.748047)"/>
</clipPath>
</defs>
</svg>
