<svg width="24" height="25" viewBox="0 0 24 25" fill="none" xmlns="http://www.w3.org/2000/svg">
<g clip-path="url(#clip0_4439_57012)">
<path d="M15.402 21.748V14.782H17.735L18.084 12.074H15.402V10.346C15.402 9.56205 15.62 9.02705 16.744 9.02705H18.178V6.60505C17.4838 6.53139 16.7861 6.49567 16.088 6.49805C14.021 6.49805 12.606 7.76005 12.606 10.078V12.074H10.268V14.782H12.606V21.748H4C3.73478 21.748 3.48043 21.6427 3.29289 21.4552C3.10536 21.2676 3 21.0133 3 20.748V4.74805C3 4.48283 3.10536 4.22848 3.29289 4.04094C3.48043 3.8534 3.73478 3.74805 4 3.74805H20C20.2652 3.74805 20.5196 3.8534 20.7071 4.04094C20.8946 4.22848 21 4.48283 21 4.74805V20.748C21 21.0133 20.8946 21.2676 20.7071 21.4552C20.5196 21.6427 20.2652 21.748 20 21.748H15.402Z" fill="#999999"/>
</g>
<defs>
<clipPath id="clip0_4439_57012">
<rect width="24" height="24" fill="white" transform="translate(0 0.748047)"/>
</clipPath>
</defs>
</svg>
