<svg width="24" height="25" viewBox="0 0 24 25" fill="none" xmlns="http://www.w3.org/2000/svg">
<path d="M21.5487 7.70836C21.3575 6.65273 20.4462 5.88398 19.3888 5.64398C17.8062 5.30836 14.8775 5.06836 11.7087 5.06836C8.54187 5.06836 5.56625 5.30836 3.98187 5.64398C2.92625 5.88398 2.01313 6.60398 1.82187 7.70836C1.62875 8.90836 1.4375 10.5884 1.4375 12.7484C1.4375 14.9084 1.62875 16.5884 1.86875 17.7884C2.06187 18.844 2.97313 19.6127 4.02875 19.8527C5.70875 20.1884 8.58875 20.4284 11.7575 20.4284C14.9262 20.4284 17.8062 20.1884 19.4862 19.8527C20.5419 19.6127 21.4531 18.8927 21.6462 17.7884C21.8375 16.5884 22.0775 14.8596 22.1262 12.7484C22.0287 10.5884 21.7887 8.90836 21.5487 7.70836ZM9.1175 16.1084V9.38836L14.9731 12.7484L9.1175 16.1084Z" fill="#737373"/>
</svg>
