<svg width="24" height="25" viewBox="0 0 24 25" fill="none" xmlns="http://www.w3.org/2000/svg">
<path fill-rule="evenodd" clip-rule="evenodd" d="M19.2222 22.748C20.7567 22.748 22 21.5047 22 19.9703V5.52582C22 3.99138 20.7567 2.74805 19.2222 2.74805H4.77778C3.24389 2.74805 2 3.99138 2 5.52582V19.9703C2 21.5047 3.24389 22.748 4.77778 22.748H19.2222ZM8.11372 9.97092H5.33594V19.4154H8.11372V9.97092ZM6.70094 8.85981H6.71649C7.5776 8.85981 8.11372 8.24148 8.11372 7.47036C8.09816 6.68203 7.5776 6.08203 6.7326 6.08203C5.88872 6.08203 5.33594 6.68203 5.33594 7.47036C5.33594 8.24203 5.87205 8.85981 6.70094 8.85981ZM15.8915 19.4154H18.6693L18.6687 14.012C18.6687 11.2209 17.1782 9.97092 15.1904 9.97092C13.5859 9.97092 12.9587 10.8043 12.5582 11.4243V9.97092H9.78038V19.4154H12.5582V14.4154C12.5582 14.369 12.5575 14.3149 12.5567 14.2561C12.553 13.9702 12.5479 13.5727 12.6143 13.4115C12.8332 12.8681 13.2843 12.3059 14.1182 12.3059C15.2109 12.3059 15.8915 13.1393 15.8915 14.3604V19.4154Z" fill="#737373"/>
</svg>
