<svg width="24" height="25" viewBox="0 0 24 25" fill="none" xmlns="http://www.w3.org/2000/svg">
<path d="M19.6819 2.66797H4.32187C2.99852 2.66797 1.92188 3.74461 1.92188 5.06797V20.428C1.92188 21.7513 2.99852 22.828 4.32187 22.828H19.6819C21.0052 22.828 22.0819 21.7513 22.0819 20.428V5.06797C22.0819 3.74461 21.0052 2.66797 19.6819 2.66797ZM17.7648 11.463C17.6558 11.4731 17.5454 11.4798 17.4336 11.4798C16.1745 11.4798 15.0681 10.8323 14.4244 9.85357C14.4244 12.4211 14.4244 15.3424 14.4244 15.3913C14.4244 17.6516 12.5918 19.4843 10.3315 19.4843C8.07116 19.4843 6.23851 17.6516 6.23851 15.3913C6.23851 13.131 8.07116 11.2984 10.3315 11.2984C10.4169 11.2984 10.5004 11.306 10.5844 11.3113V13.3283C10.5004 13.3182 10.4179 13.3028 10.3315 13.3028C9.17756 13.3028 8.24251 14.2379 8.24251 15.3918C8.24251 16.5457 9.17756 17.4808 10.3315 17.4808C11.4854 17.4808 12.5044 16.5716 12.5044 15.4177C12.5044 15.3721 12.5246 6.01261 12.5246 6.01261H14.4523C14.6337 7.73629 16.0252 9.09661 17.7648 9.22141V11.463Z" fill="#737373"/>
</svg>
