<svg width="24" height="25" viewBox="0 0 24 25" fill="none" xmlns="http://www.w3.org/2000/svg">
<g clip-path="url(#clip0_4439_57009)">
<path d="M22.1643 6.40495C21.4008 6.74264 20.5912 6.96442 19.7623 7.06295C20.636 6.54038 21.29 5.71796 21.6023 4.74895C20.7823 5.23695 19.8833 5.57895 18.9463 5.76395C18.3169 5.09053 17.4826 4.64391 16.5732 4.49353C15.6638 4.34316 14.7302 4.49744 13.9175 4.9324C13.1048 5.36737 12.4586 6.05863 12.0794 6.89874C11.7001 7.73885 11.609 8.68073 11.8202 9.57795C10.1574 9.4946 8.53058 9.06247 7.04554 8.30961C5.56049 7.55675 4.25038 6.5 3.20025 5.20795C2.82854 5.8464 2.63321 6.57218 2.63425 7.31095C2.63425 8.76095 3.37225 10.042 4.49425 10.792C3.83026 10.771 3.18088 10.5917 2.60025 10.269V10.3209C2.60045 11.2867 2.93462 12.2226 3.5461 12.97C4.15758 13.7175 5.00873 14.2304 5.95525 14.422C5.33886 14.589 4.69256 14.6136 4.06525 14.4939C4.33212 15.3252 4.85226 16.0521 5.55284 16.5731C6.25343 17.094 7.09938 17.3827 7.97225 17.3989C7.10473 18.0803 6.11143 18.5839 5.04913 18.8811C3.98683 19.1783 2.87638 19.2632 1.78125 19.1309C3.69295 20.3604 5.91835 21.0131 8.19125 21.0109C15.8842 21.0109 20.0913 14.638 20.0913 9.11095C20.0913 8.93095 20.0863 8.74895 20.0783 8.57095C20.8971 7.97912 21.6038 7.24597 22.1653 6.40595L22.1643 6.40495Z" fill="#999999"/>
</g>
<defs>
<clipPath id="clip0_4439_57009">
<rect width="24" height="24" fill="white" transform="translate(0 0.748047)"/>
</clipPath>
</defs>
</svg>
