<svg width="24" height="25" viewBox="0 0 24 25" fill="none" xmlns="http://www.w3.org/2000/svg">
<path d="M7.6775 2.1875C4.2359 2.1875 1.4375 4.9859 1.4375 8.4275V17.0675C1.4375 20.5091 4.2359 23.3075 7.6775 23.3075H16.3175C19.7591 23.3075 22.5575 20.5091 22.5575 17.0675V8.4275C22.5575 4.9859 19.7591 2.1875 16.3175 2.1875H7.6775ZM17.7575 6.0275C18.2855 6.0275 18.7175 6.4595 18.7175 6.9875C18.7175 7.5155 18.2855 7.9475 17.7575 7.9475C17.2295 7.9475 16.7975 7.5155 16.7975 6.9875C16.7975 6.4595 17.2295 6.0275 17.7575 6.0275ZM11.9975 7.4675C14.9111 7.4675 17.2775 9.8339 17.2775 12.7475C17.2775 15.6611 14.9111 18.0275 11.9975 18.0275C9.0839 18.0275 6.7175 15.6611 6.7175 12.7475C6.7175 9.8339 9.0839 7.4675 11.9975 7.4675ZM11.9975 8.4275C9.6167 8.4275 7.6775 10.3667 7.6775 12.7475C7.6775 15.1283 9.6167 17.0675 11.9975 17.0675C14.3783 17.0675 16.3175 15.1283 16.3175 12.7475C16.3175 10.3667 14.3783 8.4275 11.9975 8.4275Z" fill="#737373"/>
</svg>
