<svg width="91" height="70" viewBox="0 0 91 70" fill="none" xmlns="http://www.w3.org/2000/svg">
<path d="M90.2266 57.5684C90.2234 60.5681 89.1039 63.4593 87.0861 65.6789C85.0682 67.8985 82.2965 69.2876 79.3107 69.5758V69.6369H-30.107C-34.322 69.6369 -38.3644 67.9625 -41.3449 64.982C-44.3254 62.0015 -45.9998 57.9591 -45.9998 53.7441C-46.0003 53.2342 -45.9749 52.7247 -45.9235 52.2174C-45.6052 49.033 -44.3343 46.0185 -42.2767 43.5674C-40.2191 41.1163 -37.4704 39.3424 -34.3893 38.4772C-34.641 37.169 -34.7688 35.84 -34.771 34.5078C-34.772 30.8925 -33.8195 27.3409 -32.0096 24.2112C-30.1997 21.0815 -27.5965 18.4846 -24.4625 16.6822C-21.3285 14.8798 -17.7746 13.9359 -14.1593 13.9455C-10.544 13.9552 -6.99519 14.9181 -3.87086 16.7372C-1.85145 11.507 1.79478 7.06406 6.53044 4.0631C11.2661 1.06215 16.8406 -0.337981 22.4323 0.0690571C28.0239 0.476095 33.3368 2.66878 37.588 6.32392C41.8391 9.97906 44.8035 14.9032 46.0442 20.3707C48.3552 19.7097 50.7474 19.3757 53.151 19.3783C60.089 19.3783 66.7428 22.1345 71.6488 27.0404C76.5547 31.9463 79.3107 38.6001 79.3107 45.5381V45.5992C81.2838 45.789 83.1798 46.4623 84.8308 47.5594C86.4818 48.6565 87.8368 50.1436 88.7762 51.8892C89.7202 53.6338 90.2184 55.5848 90.2266 57.5684Z" fill="white"/>
<path fill-rule="evenodd" clip-rule="evenodd" d="M87.0861 65.6791C89.1039 63.4595 90.2234 60.5683 90.2266 57.5686C90.2186 55.6278 89.7415 53.7183 88.8367 52.0026C88.8046 51.9602 88.7768 51.9177 88.7535 51.8751C88.7535 51.8751 88.3719 57.1574 80.8071 57.2567C78.8886 57.3462 76.9815 56.917 75.2862 56.0143C73.591 55.1116 72.1704 53.7688 71.1737 52.127C71.1232 52.0425 71.0529 51.9716 70.9689 51.9201C70.885 51.8687 70.7898 51.8383 70.6916 51.8315C70.5934 51.8248 70.4951 51.8419 70.4049 51.8813C70.3147 51.9208 70.2354 51.9815 70.1737 52.0583C68.8837 53.6995 65.212 57.3941 57.9145 58.2032C50.4642 59.0353 46.3422 55.0124 44.9376 53.2873C44.8766 53.2124 44.7989 53.1529 44.7107 53.1135C44.6226 53.0741 44.5263 53.0559 44.4299 53.0604C44.3334 53.0648 44.2393 53.0918 44.1552 53.1392C44.071 53.1865 43.9991 53.2529 43.9452 53.3331C42.8766 54.9819 39.556 58.5772 31.0371 58.4169C22.2968 58.249 18.274 54.4857 16.9534 52.9056C16.8936 52.8319 16.8174 52.7731 16.731 52.734C16.6445 52.6949 16.5502 52.6764 16.4553 52.6801C16.3605 52.6838 16.2678 52.7096 16.1847 52.7553C16.1015 52.8011 16.0302 52.8656 15.9763 52.9438C14.6292 54.8286 12.8318 56.3463 10.7478 57.3583C8.66377 58.3703 6.3595 58.8445 4.04523 58.7376C-2.2142 58.5849 -5.25226 55.959 -6.48125 54.4323C-6.54662 54.3513 -6.63158 54.2884 -6.72809 54.2495C-6.82459 54.2106 -6.92947 54.197 -7.0327 54.21C-7.13593 54.223 -7.23417 54.2622 -7.31802 54.3238C-7.40186 54.3854 -7.46857 54.4674 -7.51183 54.5621C-9.43546 59.1116 -18.336 59.4704 -18.336 59.4704C-26.2366 59.1803 -28.8396 56.1269 -29.6869 54.3101C-29.7277 54.2134 -29.7932 54.1289 -29.8766 54.0652C-29.9601 54.0014 -30.0588 53.9606 -30.1629 53.9467C-30.267 53.9328 -30.3729 53.9464 -30.4702 53.986C-30.5675 54.0257 -30.6527 54.09 -30.7174 54.1728C-31.58 55.2262 -33.6182 56.6231 -38.3967 56.9437C-44.3203 57.3406 -45.6408 53.9285 -45.9233 52.2186C-45.9234 52.2186 -45.9235 52.2186 -45.9236 52.2186C-45.9749 52.7255 -46.0003 53.2347 -45.9998 53.7442C-45.9998 57.9593 -44.3254 62.0017 -41.3449 64.9822C-38.3644 67.9627 -34.322 69.6371 -30.107 69.6371H79.3107V69.576C82.2965 69.2878 85.0682 67.8987 87.0861 65.6791Z" fill="#B0E1F8"/>
</svg>
