<svg width="34" height="31" viewBox="0 0 34 31" fill="none" xmlns="http://www.w3.org/2000/svg">
<circle cx="21.0856" cy="10.4919" r="10.4919" fill="url(#paint0_linear_4358_53319)"/>
<path fill-rule="evenodd" clip-rule="evenodd" d="M20.7925 11.8417C13.1686 9.53434 10.5957 9.76415 10.5957 9.76415V9.76506C10.5611 9.76472 10.5265 9.76455 10.4919 9.76455C4.69737 9.76455 0 14.4619 0 20.2564C0 26.0509 4.69737 30.7483 10.4919 30.7483C10.5265 30.7483 10.5611 30.7481 10.5957 30.7478V30.7479H29.5794C30.684 30.7479 31.5794 29.8524 31.5794 28.7478L31.5793 25.5087C31.5793 25.5087 32.4054 25.5763 32.9996 25.3461C33.5938 25.1159 34 24.7843 34 24.7843C34 24.7843 33.2267 23.9098 32.6979 22.7445C32.1692 21.5792 31.5795 19.9743 31.5795 18.6321V9.76415C31.5795 9.76415 26.5018 13.5697 20.7925 11.8417Z" fill="url(#paint1_linear_4358_53319)"/>
<defs>
<linearGradient id="paint0_linear_4358_53319" x1="12.902" y1="2.15806" x2="15.2156" y2="19.708" gradientUnits="userSpaceOnUse">
<stop stop-color="#00A1ED"/>
<stop offset="1" stop-color="#2564A6"/>
</linearGradient>
<linearGradient id="paint1_linear_4358_53319" x1="-3.6935" y1="-0.44101" x2="-14.9173" y2="33.6313" gradientUnits="userSpaceOnUse">
<stop stop-color="#00A1ED"/>
<stop offset="1" stop-color="#2564A6"/>
</linearGradient>
</defs>
</svg>
