<svg width="157" height="47" viewBox="0 0 157 47" fill="none" xmlns="http://www.w3.org/2000/svg">
<g clip-path="url(#clip0_4358_53156)">
<path d="M150.117 0.748047H6.36719C3.19155 0.748047 0.617188 3.32241 0.617188 6.49805V40.998C0.617188 44.1737 3.19155 46.748 6.36719 46.748H150.117C153.293 46.748 155.867 44.1737 155.867 40.998V6.49805C155.867 3.32241 153.293 0.748047 150.117 0.748047Z" fill="black"/>
<path d="M150.117 1.66805C151.398 1.66805 152.627 2.17692 153.533 3.08272C154.438 3.98852 154.947 5.21705 154.947 6.49805V40.998C154.947 42.279 154.438 43.5076 153.533 44.4134C152.627 45.3192 151.398 45.828 150.117 45.828H6.36719C5.08619 45.828 3.85766 45.3192 2.95186 44.4134C2.04606 43.5076 1.53719 42.279 1.53719 40.998V6.49805C1.53719 5.21705 2.04606 3.98852 2.95186 3.08272C3.85766 2.17692 5.08619 1.66805 6.36719 1.66805H150.117ZM150.117 0.748047H6.36719C4.84219 0.748047 3.37966 1.35385 2.30132 2.43218C1.22299 3.51052 0.617188 4.97305 0.617188 6.49805V40.998C0.617188 42.523 1.22299 43.9856 2.30132 45.0639C3.37966 46.1422 4.84219 46.748 6.36719 46.748H150.117C151.642 46.748 153.105 46.1422 154.183 45.0639C155.261 43.9856 155.867 42.523 155.867 40.998V6.49805C155.867 4.97305 155.261 3.51052 154.183 2.43218C153.105 1.35385 151.642 0.748047 150.117 0.748047Z" fill="#A6A6A6"/>
<path d="M55.1507 12.5228C55.1703 12.9446 55.1039 13.366 54.9556 13.7613C54.8074 14.1567 54.5803 14.5178 54.2882 14.8228C53.9621 15.1616 53.5682 15.4278 53.1323 15.6041C52.6964 15.7805 52.2282 15.863 51.7582 15.8463C51.0452 15.8407 50.3497 15.6248 49.7588 15.2257C49.168 14.8265 48.708 14.2619 48.4367 13.6025C48.1653 12.9431 48.0946 12.2183 48.2333 11.5189C48.3721 10.8195 48.7142 10.1766 49.2167 9.67077C49.547 9.33357 49.943 9.06773 50.3801 8.88971C50.8173 8.71168 51.2863 8.62525 51.7582 8.63577C52.2444 8.63415 52.7257 8.73199 53.1727 8.92327C53.5888 9.09112 53.9593 9.35516 54.2537 9.69377L53.6442 10.3033C53.4147 10.0303 53.1248 9.81436 52.7975 9.67265C52.4702 9.53094 52.1144 9.46731 51.7582 9.48677C51.399 9.48501 51.0431 9.5558 50.7119 9.69491C50.3808 9.83401 50.0811 10.0386 49.8309 10.2963C49.5806 10.554 49.385 10.8596 49.2558 11.1948C49.1266 11.53 49.0663 11.8878 49.0787 12.2468C49.0712 12.7828 49.2226 13.3091 49.5138 13.7592C49.805 14.2093 50.223 14.5631 50.7151 14.7759C51.2071 14.9887 51.7512 15.051 52.2786 14.955C52.8061 14.859 53.2933 14.6089 53.6787 14.2363C54.0326 13.8528 54.2367 13.3548 54.2537 12.8333H51.7582V12.0053H55.1047C55.1354 12.1761 55.1508 12.3492 55.1507 12.5228ZM60.4177 9.64777H57.3127V11.8328H60.1417V12.6608H57.3127V14.8458H60.4177V15.6968H56.3927V8.79677H60.4177V9.64777ZM64.1897 15.6968H63.3042V9.64777H61.3722V8.79677H66.1677V9.64777H64.1897V15.6968ZM69.5487 15.6968V8.79677H70.4342V15.6968H69.5487ZM74.3672 15.6968H73.4817V9.64777H71.5497V8.79677H76.2877V9.64777H74.3672V15.6968ZM85.2692 14.7998C84.5969 15.4683 83.6873 15.8436 82.7392 15.8436C81.7911 15.8436 80.8815 15.4683 80.2092 14.7998C79.5558 14.1081 79.1917 13.1926 79.1917 12.241C79.1917 11.2895 79.5558 10.374 80.2092 9.68227C80.5406 9.34847 80.9347 9.08355 81.3689 8.90277C81.8032 8.72198 82.2689 8.62891 82.7392 8.62891C83.2096 8.62891 83.6753 8.72198 84.1095 8.90277C84.5437 9.08355 84.9378 9.34847 85.2692 9.68227C85.9253 10.3726 86.2911 11.2886 86.2911 12.241C86.2911 13.1934 85.9253 14.1094 85.2692 14.7998ZM80.8647 14.2248C81.3626 14.7206 82.0366 14.9989 82.7392 14.9989C83.4418 14.9989 84.1158 14.7206 84.6137 14.2248C85.105 13.6831 85.3772 12.978 85.3772 12.2468C85.3772 11.5155 85.105 10.8104 84.6137 10.2688C84.1158 9.77298 83.4418 9.49462 82.7392 9.49462C82.0366 9.49462 81.3626 9.77298 80.8647 10.2688C80.3734 10.8104 80.1012 11.5155 80.1012 12.2468C80.1012 12.978 80.3734 13.6831 80.8647 14.2248ZM87.5347 15.6968V8.79677H88.6157L91.9737 14.1673V8.79677H92.8592V15.6968H91.9392L88.4317 10.0733V15.6968H87.5347Z" fill="white" stroke="white" stroke-width="0.23" stroke-miterlimit="10"/>
<path d="M78.9821 25.7612C78.0164 25.7658 77.0738 26.0563 76.2731 26.5961C75.4723 27.1359 74.8495 27.9008 74.4831 28.7942C74.1167 29.6877 74.0232 30.6697 74.2143 31.6162C74.4055 32.5628 74.8728 33.4315 75.5572 34.1128C76.2417 34.794 77.1126 35.2572 78.06 35.4439C79.0075 35.6307 79.989 35.5325 80.8808 35.1619C81.7725 34.7913 82.5345 34.1649 83.0705 33.3617C83.6065 32.5584 83.8926 31.6144 83.8926 30.6487C83.902 30.0023 83.7812 29.3607 83.5375 28.762C83.2937 28.1632 82.932 27.6197 82.4738 27.1637C82.0156 26.7076 81.4704 26.3484 80.8705 26.1075C80.2706 25.8666 79.6284 25.7488 78.9821 25.7612ZM78.9821 33.6157C78.3882 33.6573 77.7956 33.5192 77.2812 33.2194C76.7669 32.9197 76.3546 32.4721 76.0979 31.9349C75.8413 31.3977 75.7522 30.7958 75.8422 30.2073C75.9323 29.6188 76.1972 29.071 76.6027 28.6351C77.0082 28.1992 77.5354 27.8954 78.1159 27.7631C78.6964 27.6308 79.3032 27.6762 79.8575 27.8934C80.4118 28.1106 80.8879 28.4895 81.224 28.9809C81.5602 29.4723 81.7407 30.0534 81.7421 30.6487C81.7606 31.0259 81.7034 31.403 81.5739 31.7578C81.4444 32.1126 81.2451 32.4378 80.9879 32.7143C80.7306 32.9908 80.4206 33.2131 80.0762 33.3679C79.7317 33.5227 79.3597 33.607 78.9821 33.6157ZM68.2756 25.7612C67.3094 25.7635 66.3656 26.0521 65.5634 26.5905C64.7612 27.1289 64.1365 27.893 63.7684 28.7863C63.4002 29.6796 63.305 30.6619 63.4949 31.6093C63.6848 32.5566 64.1512 33.4264 64.8352 34.1087C65.5192 34.7911 66.3901 35.2555 67.3378 35.4431C68.2856 35.6308 69.2677 35.5333 70.1601 35.1631C71.0525 34.7928 71.8152 34.1664 72.3517 33.3629C72.8882 32.5594 73.1746 31.6149 73.1746 30.6487C73.184 30.0023 73.0632 29.3607 72.8195 28.762C72.5757 28.1632 72.214 27.6197 71.7558 27.1637C71.2976 26.7076 70.7524 26.3484 70.1525 26.1075C69.5526 25.8666 68.9104 25.7488 68.2641 25.7612H68.2756ZM68.2756 33.6157C67.6814 33.6596 67.0878 33.5236 66.572 33.2254C66.0563 32.9271 65.6422 32.4806 65.3838 31.9437C65.1253 31.4069 65.0345 30.8047 65.1231 30.2155C65.2117 29.6264 65.4756 29.0775 65.8805 28.6405C66.2854 28.2034 66.8125 27.8983 67.3932 27.765C67.9739 27.6317 68.5812 27.6763 69.1362 27.893C69.6912 28.1097 70.1681 28.4884 70.5048 28.9799C70.8415 29.4714 71.0225 30.0529 71.0241 30.6487C71.0426 31.0259 70.9854 31.403 70.8559 31.7578C70.7264 32.1126 70.5271 32.4378 70.2699 32.7143C70.0126 32.9908 69.7026 33.2131 69.3582 33.3679C69.0137 33.5227 68.6417 33.607 68.2641 33.6157H68.2756ZM55.5221 27.2677V29.3377H60.4901C60.4122 30.3127 60.0069 31.2327 59.3401 31.9482C58.8431 32.4545 58.2456 32.8511 57.586 33.1125C56.9265 33.374 56.2195 33.4945 55.5106 33.4662C54.0466 33.4662 52.6426 32.8846 51.6074 31.8494C50.5722 30.8142 49.9906 29.4102 49.9906 27.9462C49.9906 26.4822 50.5722 25.0782 51.6074 24.043C52.6426 23.0078 54.0466 22.4262 55.5106 22.4262C56.9111 22.4034 58.2634 22.9369 59.2711 23.9097L60.7316 22.4492C60.0514 21.7604 59.2398 21.2151 58.3449 20.8457C57.4501 20.4763 56.4902 20.2903 55.5221 20.2987C54.4998 20.2589 53.4799 20.4259 52.5236 20.7897C51.5674 21.1535 50.6944 21.7066 49.957 22.4159C49.2196 23.1251 48.633 23.976 48.2323 24.9173C47.8315 25.8587 47.625 26.8713 47.625 27.8945C47.625 28.9176 47.8315 29.9302 48.2323 30.8716C48.633 31.813 49.2196 32.6638 49.957 33.3731C50.6944 34.0823 51.5674 34.6354 52.5236 34.9992C53.4799 35.363 54.4998 35.53 55.5221 35.4902C56.5065 35.5347 57.4889 35.3678 58.4034 35.0009C59.3178 34.6339 60.1431 34.0753 60.8236 33.3627C62.0284 32.039 62.6717 30.2988 62.6176 28.5097C62.6213 28.0739 62.5828 27.6387 62.5026 27.2102L55.5221 27.2677ZM107.629 28.8777C107.329 27.9954 106.768 27.2249 106.02 26.6684C105.273 26.1119 104.374 25.7955 103.443 25.7612C102.814 25.76 102.191 25.8878 101.613 26.1367C101.036 26.3857 100.515 26.7505 100.084 27.2085C99.6528 27.6666 99.3202 28.2082 99.1067 28.8C98.8932 29.3917 98.8033 30.0209 98.8426 30.6487C98.8286 31.2915 98.9443 31.9304 99.1828 32.5275C99.4213 33.1245 99.7777 33.6673 100.231 34.1235C100.684 34.5797 101.224 34.94 101.819 35.1827C102.415 35.4254 103.053 35.5456 103.696 35.5362C104.5 35.5406 105.293 35.3453 106.003 34.968C106.714 34.5907 107.32 34.0431 107.767 33.3742L106.099 32.2242C105.85 32.6391 105.498 32.9823 105.077 33.2202C104.655 33.458 104.179 33.5824 103.696 33.5812C103.197 33.6002 102.705 33.4689 102.283 33.2043C101.86 32.9397 101.527 32.5542 101.327 32.0977L107.87 29.3952L107.629 28.8777ZM100.959 30.5107C100.935 30.155 100.983 29.7982 101.099 29.4613C101.216 29.1243 101.398 28.8139 101.636 28.5483C101.874 28.2828 102.162 28.0673 102.484 27.9145C102.806 27.7617 103.156 27.6748 103.512 27.6587C103.883 27.6343 104.253 27.7193 104.576 27.9033C104.899 28.0873 105.16 28.3622 105.329 28.6937L100.959 30.5107ZM95.6456 35.2487H97.7961V20.8737H95.6456V35.2487ZM92.1266 26.8537H92.0461C91.722 26.4914 91.325 26.2016 90.881 26.0034C90.4371 25.8052 89.9563 25.7031 89.4701 25.7037C88.2134 25.7647 87.0283 26.3068 86.1604 27.2178C85.2925 28.1288 84.8084 29.3388 84.8084 30.597C84.8084 31.8552 85.2925 33.0652 86.1604 33.9761C87.0283 34.8871 88.2134 35.4293 89.4701 35.4902C89.9574 35.4984 90.4406 35.3997 90.8857 35.201C91.3308 35.0023 91.7269 34.7085 92.0461 34.3402H92.1151V35.0417C92.1151 36.9162 91.1146 37.9167 89.5046 37.9167C88.9684 37.9042 88.448 37.7323 88.0098 37.4231C87.5715 37.1139 87.2352 36.6812 87.0436 36.1802L85.1691 36.9622C85.522 37.8205 86.1232 38.5539 86.8956 39.0682C87.6681 39.5825 88.5766 39.8543 89.5046 39.8487C92.0231 39.8487 94.1046 38.3652 94.1046 34.7542V26.0487H92.1266V26.8537ZM89.6656 33.6157C88.9238 33.5503 88.2334 33.2095 87.7305 32.6603C87.2275 32.1111 86.9486 31.3934 86.9486 30.6487C86.9486 29.904 87.2275 29.1864 87.7305 28.6372C88.2334 28.088 88.9238 27.7471 89.6656 27.6817C90.0334 27.7006 90.3937 27.7929 90.7253 27.9532C91.0569 28.1134 91.353 28.3384 91.5963 28.6149C91.8396 28.8914 92.025 29.2138 92.1418 29.5631C92.2585 29.9124 92.3042 30.2815 92.2761 30.6487C92.3075 31.0175 92.2637 31.3888 92.1475 31.7402C92.0313 32.0916 91.845 32.4158 91.5999 32.6932C91.3548 32.9705 91.056 33.1953 90.7215 33.3538C90.3871 33.5124 90.024 33.6015 89.6541 33.6157H89.6656ZM117.703 20.8737H112.562V35.2487H114.713V29.7977H117.714C118.327 29.8417 118.942 29.759 119.522 29.5548C120.101 29.3505 120.633 29.029 121.082 28.6103C121.532 28.1917 121.891 27.6849 122.136 27.1215C122.382 26.5581 122.508 25.9502 122.508 25.3357C122.508 24.7212 122.382 24.1134 122.136 23.55C121.891 22.9866 121.532 22.4797 121.082 22.0611C120.633 21.6425 120.101 21.321 119.522 21.1167C118.942 20.9124 118.327 20.8297 117.714 20.8737H117.703ZM117.703 27.7737H114.701V22.8747H117.749C118.403 22.8747 119.03 23.1346 119.493 23.5972C119.955 24.0598 120.215 24.6872 120.215 25.3415C120.215 25.9957 119.955 26.6231 119.493 27.0857C119.03 27.5483 118.403 27.8082 117.749 27.8082L117.703 27.7737ZM130.962 25.7037C130.179 25.6569 129.4 25.8399 128.719 26.2301C128.039 26.6203 127.488 27.2008 127.133 27.9002L129.042 28.6937C129.23 28.3468 129.515 28.0621 129.862 27.8743C130.209 27.6864 130.603 27.6036 130.997 27.6357C131.27 27.6038 131.546 27.6266 131.81 27.7028C132.074 27.7789 132.321 27.9069 132.535 28.0793C132.749 28.2516 132.926 28.4649 133.057 28.7066C133.188 28.9484 133.269 29.2137 133.297 29.4872V29.6367C132.606 29.271 131.836 29.0814 131.054 29.0847C128.996 29.0847 126.914 30.2347 126.914 32.3162C126.934 32.76 127.044 33.1953 127.235 33.5962C127.426 33.9972 127.696 34.3556 128.029 34.6505C128.361 34.9453 128.749 35.1705 129.17 35.3128C129.591 35.455 130.036 35.5115 130.479 35.4787C131.021 35.5176 131.563 35.41 132.048 35.1672C132.534 34.9244 132.945 34.5553 133.239 34.0987H133.308V35.2487H135.378V29.7172C135.378 27.1987 133.469 25.7382 131.02 25.7382L130.962 25.7037ZM130.698 33.5812C129.996 33.5812 129.019 33.2247 129.019 32.3622C129.019 31.2122 130.238 30.8327 131.319 30.8327C132.002 30.8159 132.677 30.9827 133.274 31.3157C133.202 31.9383 132.907 32.514 132.444 32.9366C131.982 33.3593 131.382 33.6004 130.755 33.6157L130.698 33.5812ZM142.922 26.0487L140.461 32.2817H140.392L137.839 26.0487H135.539L139.369 34.7657L137.184 39.6072H139.426L145.314 26.0487H142.922ZM123.591 35.2487H125.741V20.8737H123.591V35.2487Z" fill="white"/>
<path d="M12.6269 9.42035C12.252 9.87012 12.0629 10.4459 12.0979 11.0303V36.4683C12.0629 37.0528 12.252 37.6286 12.6269 38.0783L12.7074 38.1588L26.9559 23.9218V23.5883L12.7074 9.33984L12.6269 9.42035Z" fill="url(#paint0_linear_4358_53156)"/>
<path d="M31.6681 28.6702L26.9531 23.9207V23.5872L31.6681 18.8262L31.7716 18.8837L37.4181 22.0922C39.0281 23.0007 39.0281 24.4957 37.4181 25.4157L31.7946 28.6127L31.6681 28.6702Z" fill="url(#paint1_linear_4358_53156)"/>
<path d="M31.807 28.601L26.954 23.748L12.625 38.077C12.9532 38.3655 13.3718 38.5303 13.8086 38.5429C14.2453 38.5555 14.6727 38.4151 15.017 38.146L31.8185 28.601" fill="url(#paint2_linear_4358_53156)"/>
<path d="M31.8029 18.8958L15.0014 9.35076C14.6571 9.08168 14.2297 8.94131 13.7929 8.9539C13.3562 8.9665 12.9375 9.13128 12.6094 9.41976L26.9499 23.7488L31.8029 18.8958Z" fill="url(#paint3_linear_4358_53156)"/>
<path opacity="0.2" d="M31.669 28.498L15.0055 37.9855C14.6735 38.2338 14.2701 38.3679 13.8555 38.3679C13.4409 38.3679 13.0375 38.2338 12.7055 37.9855L12.625 38.066L12.7055 38.1465C13.0368 38.3966 13.4405 38.5318 13.8555 38.5318C14.2705 38.5318 14.6742 38.3966 15.0055 38.1465L31.807 28.6015L31.669 28.498Z" fill="black"/>
<path opacity="0.12" d="M12.6269 37.916C12.252 37.4663 12.0629 36.8905 12.0979 36.306V36.4785C12.0629 37.063 12.252 37.6388 12.6269 38.0885L12.7074 38.008L12.6269 37.916ZM37.4209 25.243L31.6709 28.4975L31.7744 28.601L37.4209 25.404C37.7413 25.2535 38.0163 25.0212 38.2182 24.7304C38.4201 24.4397 38.5418 24.1008 38.5709 23.748C38.5062 24.0686 38.3689 24.37 38.1696 24.6291C37.9702 24.8883 37.7141 25.0983 37.4209 25.243Z" fill="black"/>
<path opacity="0.25" d="M15.0069 9.50988L37.4204 22.2519C37.7136 22.3966 37.9698 22.6066 38.1691 22.8658C38.3685 23.1249 38.5058 23.4264 38.5704 23.7469C38.5413 23.3941 38.4197 23.0552 38.2178 22.7645C38.0159 22.4737 37.7408 22.2414 37.4204 22.0909L15.0069 9.34888C13.3969 8.44038 12.0859 9.19938 12.0859 11.0394V11.2119C12.1204 9.36038 13.4084 8.60138 15.0069 9.50988Z" fill="white"/>
</g>
<defs>
<linearGradient id="paint0_linear_4358_53156" x1="25.6909" y1="10.7658" x2="6.39387" y2="30.0628" gradientUnits="userSpaceOnUse">
<stop stop-color="#00A0FF"/>
<stop offset="0.01" stop-color="#00A1FF"/>
<stop offset="0.26" stop-color="#00BEFF"/>
<stop offset="0.51" stop-color="#00D2FF"/>
<stop offset="0.76" stop-color="#00DFFF"/>
<stop offset="1" stop-color="#00E3FF"/>
</linearGradient>
<linearGradient id="paint1_linear_4358_53156" x1="39.5226" y1="23.7482" x2="11.7041" y2="23.7482" gradientUnits="userSpaceOnUse">
<stop stop-color="#FFE000"/>
<stop offset="0.41" stop-color="#FFBD00"/>
<stop offset="0.78" stop-color="#FFA500"/>
<stop offset="1" stop-color="#FF9C00"/>
</linearGradient>
<linearGradient id="paint2_linear_4358_53156" x1="29.1735" y1="26.393" x2="2.9995" y2="52.5555" gradientUnits="userSpaceOnUse">
<stop stop-color="#FF3A44"/>
<stop offset="1" stop-color="#C31162"/>
</linearGradient>
<linearGradient id="paint3_linear_4358_53156" x1="9.00988" y1="0.955762" x2="20.6939" y2="12.6398" gradientUnits="userSpaceOnUse">
<stop stop-color="#32A071"/>
<stop offset="0.07" stop-color="#2DA771"/>
<stop offset="0.48" stop-color="#15CF74"/>
<stop offset="0.8" stop-color="#06E775"/>
<stop offset="1" stop-color="#00F076"/>
</linearGradient>
<clipPath id="clip0_4358_53156">
<rect width="156" height="46" fill="white" transform="translate(0.617188 0.748047)"/>
</clipPath>
</defs>
</svg>
