<svg width="76" height="61" viewBox="0 0 76 61" fill="none" xmlns="http://www.w3.org/2000/svg">
<path d="M0 50.3422C0.00278733 52.9654 0.981762 55.4936 2.74629 57.4346C4.51082 59.3756 6.93463 60.5904 9.54566 60.8424V60.8958H105.229C108.915 60.8958 112.45 59.4316 115.056 56.8252C117.662 54.2188 119.127 50.6839 119.127 46.9979C119.127 46.552 119.105 46.1064 119.06 45.6629C118.782 42.8782 117.67 40.2421 115.871 38.0986C114.072 35.9552 111.668 34.4039 108.974 33.6474C109.194 32.5034 109.305 31.3412 109.307 30.1762C109.308 27.0147 108.475 23.9089 106.893 21.1721C105.31 18.4353 103.033 16.1643 100.293 14.5882C97.5522 13.0121 94.4444 12.1866 91.283 12.195C88.1215 12.2035 85.0181 13.0455 82.2859 14.6362C80.52 10.0626 77.3315 6.17735 73.1902 3.55308C69.049 0.928823 64.1742 -0.295556 59.2845 0.0603888C54.3947 0.416334 49.7487 2.33379 46.0312 5.53012C42.3137 8.72645 39.7214 13.0325 38.6364 17.8137C36.6155 17.2357 34.5236 16.9436 32.4217 16.9459C26.3546 16.9459 20.536 19.356 16.2458 23.6461C11.9557 27.9363 9.54566 33.7549 9.54566 39.822V39.8754C7.82019 40.0414 6.16221 40.6302 4.71848 41.5896C3.27474 42.5489 2.08976 43.8494 1.26832 45.3758C0.442809 46.9015 0.00711076 48.6075 0 50.3422Z" fill="white"/>
<path fill-rule="evenodd" clip-rule="evenodd" d="M2.74629 57.4348C0.981762 55.4938 0.00278733 52.9656 0 50.3424C0.0069572 48.6452 0.42419 46.9754 1.21538 45.4751C1.24349 45.438 1.26783 45.4008 1.28817 45.3636C1.28817 45.3636 1.62187 49.9829 8.23705 50.0696C9.91474 50.1479 11.5825 49.7726 13.065 48.9832C14.5474 48.1938 15.7897 47.0196 16.6612 45.5839C16.7055 45.51 16.7669 45.4479 16.8403 45.4029C16.9137 45.358 16.9969 45.3314 17.0828 45.3255C17.1687 45.3196 17.2547 45.3345 17.3336 45.369C17.4124 45.4036 17.4818 45.4567 17.5357 45.5238C18.6638 46.959 21.8746 50.1898 28.2562 50.8974C34.7712 51.625 38.3758 48.1071 39.6041 46.5985C39.6575 46.533 39.7254 46.481 39.8025 46.4465C39.8796 46.4121 39.9637 46.3962 40.0481 46.4001C40.1325 46.404 40.2147 46.4276 40.2883 46.469C40.3619 46.5104 40.4248 46.5685 40.4719 46.6385C41.4064 48.0804 44.3102 51.2245 51.7598 51.0843C59.403 50.9374 62.9208 47.6465 64.0756 46.2647C64.1279 46.2003 64.1945 46.1489 64.2701 46.1147C64.3457 46.0804 64.4282 46.0643 64.5112 46.0675C64.5941 46.0708 64.6752 46.0933 64.7479 46.1333C64.8206 46.1734 64.883 46.2298 64.9301 46.2981C66.108 47.9464 67.6799 49.2735 69.5023 50.1585C71.3247 51.0435 73.3397 51.4581 75.3635 51.3646C80.8372 51.2311 83.4939 48.9348 84.5686 47.5998C84.6258 47.529 84.7001 47.474 84.7845 47.44C84.8689 47.406 84.9606 47.3941 85.0509 47.4054C85.1412 47.4168 85.2271 47.4511 85.3004 47.5049C85.3737 47.5588 85.432 47.6305 85.4699 47.7133C87.152 51.6917 94.9353 52.0055 94.9353 52.0055C101.844 51.7518 104.12 49.0817 104.861 47.493C104.897 47.4083 104.954 47.3345 105.027 47.2788C105.1 47.223 105.187 47.1873 105.278 47.1752C105.369 47.163 105.461 47.1749 105.546 47.2096C105.631 47.2442 105.706 47.3005 105.763 47.3728C106.517 48.294 108.299 49.5156 112.478 49.796C117.658 50.1431 118.813 47.1592 119.06 45.664C119.06 45.664 119.06 45.664 119.06 45.664C119.105 46.1073 119.127 46.5526 119.127 46.9981C119.127 50.6841 117.662 54.219 115.056 56.8254C112.45 59.4318 108.915 60.896 105.229 60.896H9.54566V60.8426C6.93463 60.5906 4.51082 59.3758 2.74629 57.4348Z" fill="#B0E1F8"/>
</svg>
